<svg width="52" height="23" viewBox="0 0 52 23" fill="none" xmlns="http://www.w3.org/2000/svg">
<path d="M9.70391 3.52466C9.11993 4.23218 8.13165 4.76001 7.34551 4.76001C7.25567 4.76001 7.16582 4.74878 7.10967 4.73755C7.09844 4.69263 7.07598 4.55786 7.07598 4.4231C7.07598 3.52466 7.53643 2.62622 8.03057 2.0647C8.65948 1.32349 9.71514 0.773193 10.5911 0.739502C10.6136 0.840576 10.6248 0.964111 10.6248 1.08765C10.6248 1.98608 10.243 2.87329 9.70391 3.52466ZM10.3216 4.95093C10.8157 4.95093 12.6014 4.99585 13.7693 6.68042C13.6683 6.75903 11.8939 7.75854 11.8939 9.99341C11.8939 12.5764 14.1512 13.4973 14.2186 13.5198C14.2073 13.5759 13.8592 14.7664 13.0281 15.9905C12.2869 17.0574 11.5008 18.1355 10.3216 18.1355C9.13116 18.1355 8.82793 17.4392 7.46905 17.4392C6.13262 17.4392 5.66094 18.158 4.58282 18.158C3.49346 18.158 2.74102 17.1584 1.87627 15.9456C0.865532 14.5081 0.0569382 12.2844 0.0569382 10.1731C0.0569382 6.79272 2.25811 4.99585 4.42559 4.99585C5.5711 4.99585 6.52569 5.74829 7.25567 5.74829C7.94073 5.74829 9.00762 4.95093 10.3216 4.95093ZM15.7805 18.0344V1.82886H22.2493C25.5398 1.82886 27.7634 3.99634 27.7634 7.24194V7.2644C27.7634 10.4988 25.5398 12.6775 22.2493 12.6775H18.678V18.0344H15.7805ZM21.5418 4.19849H18.678V10.3416H21.5418C23.6194 10.3416 24.8323 9.21851 24.8323 7.27563V7.25317C24.8323 5.3103 23.6194 4.19849 21.5418 4.19849ZM32.3464 18.2366C30.0105 18.2366 28.3147 16.7991 28.3147 14.5642V14.5417C28.3147 12.3518 29.988 11.0715 32.9753 10.8918L36.1311 10.7009V9.64526C36.1311 8.42114 35.3337 7.74731 33.8288 7.74731C32.5486 7.74731 31.7175 8.20776 31.4367 9.01636L31.4255 9.06128H28.7864L28.7976 8.96021C29.0671 6.8938 31.0437 5.52368 33.9636 5.52368C37.1194 5.52368 38.8938 7.05103 38.8938 9.64526V18.0344H36.1311V16.3499H35.9402C35.2663 17.5403 33.9636 18.2366 32.3464 18.2366ZM31.0774 14.4294C31.0774 15.4739 31.9646 16.0916 33.1999 16.0916C34.8845 16.0916 36.1311 14.991 36.1311 13.531V12.5427L33.3684 12.7224C31.8074 12.8235 31.0774 13.3962 31.0774 14.407V14.4294ZM41.9606 22.3469C41.6237 22.3469 41.2307 22.3357 40.8937 22.302V20.157C41.1184 20.1794 41.4328 20.1907 41.7248 20.1907C42.8703 20.1907 43.5554 19.719 43.8586 18.6072L44.0046 18.0457L39.6135 5.75952H42.6682L45.5319 15.3503H45.7453L48.5978 5.75952H51.5402L47.1379 18.2927C46.0822 21.3699 44.6784 22.3469 41.9606 22.3469Z" fill="black"/>
</svg>
