<?xml version="1.0" encoding="UTF-8"?>
<svg xmlns="http://www.w3.org/2000/svg" xmlns:xlink="http://www.w3.org/1999/xlink" width="117pt" height="32pt" viewBox="0 0 117 32" version="1.1">
<defs>
<clipPath id="clip1">
  <path d="M 3 0 L 114 0 L 114 22 L 3 22 Z M 3 0 "/>
</clipPath>
<clipPath id="clip2">
  <path d="M 111.910156 0.800781 L 100.023438 0.800781 C 99.355469 0.847656 98.710938 1.054688 98.160156 1.398438 C 97.609375 1.746094 97.171875 2.214844 96.894531 2.761719 L 94.234375 8.265625 C 93.710938 9.347656 94.234375 10.222656 95.46875 10.222656 L 107.355469 10.222656 C 108.023438 10.175781 108.667969 9.96875 109.21875 9.625 C 109.765625 9.28125 110.207031 8.8125 110.488281 8.265625 L 113.148438 2.761719 C 113.667969 1.679688 113.117188 0.800781 111.910156 0.800781 Z M 91.3125 11.328125 L 89.367188 11.328125 C 88.738281 11.328125 88.113281 11.367188 87.492188 11.410156 L 84.382813 21.816406 C 85.371094 21.625 86.367188 21.480469 87.371094 21.386719 L 87.855469 19.761719 C 88.675781 19.699219 89.5 19.667969 90.335938 19.667969 C 91.171875 19.667969 91.996094 19.699219 92.816406 19.761719 L 93.296875 21.386719 C 94.304688 21.476563 95.300781 21.621094 96.289063 21.816406 L 93.175781 11.410156 C 92.5625 11.367188 91.941406 11.34375 91.3125 11.328125 Z M 90.335938 17.21875 C 89.757813 17.21875 89.175781 17.21875 88.59375 17.257813 L 89.628906 13.792969 L 91.027344 13.792969 L 92.0625 17.257813 C 91.5 17.226563 90.917969 17.21875 90.335938 17.21875 Z M 73.851563 14.585938 C 73.847656 15.160156 73.675781 15.722656 73.351563 16.21875 L 73.363281 16.230469 C 73.703125 16.53125 73.976563 16.890625 74.160156 17.285156 C 74.347656 17.683594 74.441406 18.105469 74.441406 18.535156 C 74.441406 18.964844 74.347656 19.390625 74.160156 19.789063 C 73.976563 20.183594 73.703125 20.542969 73.363281 20.84375 C 72.675781 21.457031 71.746094 21.800781 70.777344 21.800781 L 63.972656 21.800781 L 63.972656 11.296875 L 70.222656 11.296875 C 70.863281 11.296875 71.492188 11.453125 72.046875 11.742188 C 72.597656 12.03125 73.058594 12.445313 73.375 12.945313 C 73.691406 13.445313 73.859375 14.011719 73.851563 14.585938 Z M 70.222656 13.859375 L 66.738281 13.859375 L 66.738281 15.300781 L 70.292969 15.300781 C 70.46875 15.289063 70.636719 15.21875 70.761719 15.105469 C 70.835938 15.035156 70.898438 14.957031 70.9375 14.867188 C 70.976563 14.777344 70.996094 14.679688 70.992188 14.585938 C 70.996094 14.488281 70.980469 14.390625 70.9375 14.300781 C 70.898438 14.210938 70.839844 14.132813 70.761719 14.0625 C 70.691406 14 70.609375 13.949219 70.515625 13.914063 C 70.421875 13.878906 70.320313 13.859375 70.222656 13.859375 Z M 71.082031 19.179688 C 71.179688 19.144531 71.273438 19.089844 71.347656 19.023438 C 71.421875 18.960938 71.480469 18.882813 71.519531 18.800781 C 71.5625 18.714844 71.582031 18.625 71.582031 18.535156 C 71.582031 18.441406 71.5625 18.351563 71.519531 18.269531 C 71.480469 18.183594 71.421875 18.109375 71.347656 18.042969 C 71.273438 17.976563 71.179688 17.921875 71.082031 17.886719 C 70.980469 17.851563 70.875 17.835938 70.765625 17.835938 L 66.703125 17.835938 L 66.703125 19.230469 L 70.765625 19.230469 C 70.875 19.234375 70.980469 19.214844 71.082031 19.179688 Z M 50.878906 18.207031 C 51.214844 18.054688 51.523438 17.863281 51.800781 17.632813 L 51.847656 17.597656 L 51.890625 17.5625 C 52.375 17.128906 52.730469 16.589844 52.921875 16 L 52.921875 15.699219 C 52.972656 15.472656 53 15.242188 52.996094 15.011719 C 52.996094 14.046875 52.570313 13.117188 51.808594 12.433594 C 51.046875 11.753906 50.011719 11.367188 48.933594 11.367188 L 46.042969 11.367188 C 44.964844 11.367188 43.929688 11.753906 43.167969 12.433594 C 42.40625 13.117188 41.976563 14.046875 41.976563 15.011719 L 41.976563 21.800781 L 44.742188 21.800781 L 44.742188 18.398438 L 47.410156 18.398438 C 48.347656 19.441406 49.230469 20.507813 50.054688 21.609375 L 53.132813 21.609375 C 52.308594 20.421875 51.429688 19.273438 50.496094 18.164063 Z M 49.910156 15.703125 C 49.800781 15.804688 49.667969 15.882813 49.523438 15.9375 C 49.378906 15.992188 49.222656 16.019531 49.066406 16.019531 L 46.042969 16.019531 C 45.882813 16.019531 45.730469 15.992188 45.585938 15.9375 C 45.4375 15.882813 45.308594 15.804688 45.199219 15.703125 C 45.085938 15.605469 44.996094 15.488281 44.9375 15.359375 C 44.875 15.230469 44.84375 15.089844 44.84375 14.949219 C 44.847656 14.664063 44.976563 14.394531 45.199219 14.195313 C 45.421875 13.996094 45.726563 13.882813 46.042969 13.882813 L 49.066406 13.882813 C 49.222656 13.882813 49.375 13.910156 49.519531 13.964844 C 49.660156 14.015625 49.789063 14.097656 49.898438 14.195313 C 50.007813 14.296875 50.089844 14.414063 50.148438 14.542969 C 50.203125 14.671875 50.230469 14.808594 50.226563 14.949219 C 50.234375 15.085938 50.207031 15.226563 50.152344 15.355469 C 50.097656 15.484375 50.015625 15.601563 49.910156 15.703125 Z M 27.234375 11.316406 L 29.996094 11.316406 L 29.996094 21.800781 L 27.234375 21.800781 Z M 10.589844 11.328125 L 8.644531 11.328125 C 8.011719 11.328125 7.390625 11.367188 6.769531 11.410156 L 3.65625 21.816406 C 4.644531 21.625 5.640625 21.480469 6.648438 21.386719 L 7.132813 19.761719 C 7.953125 19.699219 8.777344 19.667969 9.613281 19.667969 C 10.449219 19.667969 11.273438 19.699219 12.09375 19.761719 L 12.574219 21.386719 C 13.582031 21.480469 14.578125 21.621094 15.566406 21.816406 L 12.453125 11.410156 C 11.839844 11.367188 11.21875 11.34375 10.589844 11.328125 Z M 11.339844 17.257813 C 10.769531 17.226563 10.195313 17.21875 9.613281 17.21875 C 9.035156 17.21875 8.453125 17.21875 7.871094 17.257813 L 8.90625 13.792969 L 10.304688 13.792969 Z M 103.449219 3.609375 C 103.738281 3.535156 104.039063 3.496094 104.34375 3.5 C 104.808594 3.46875 105.269531 3.597656 105.632813 3.859375 C 105.789063 4 105.910156 4.171875 105.988281 4.359375 C 106.066406 4.550781 106.097656 4.75 106.078125 4.949219 L 106.078125 6.949219 L 105.238281 6.949219 L 105.238281 6.539063 C 105.121094 6.6875 104.957031 6.804688 104.765625 6.875 C 104.53125 6.957031 104.277344 6.996094 104.023438 6.984375 C 103.765625 6.992188 103.511719 6.945313 103.273438 6.855469 C 103.074219 6.777344 102.90625 6.652344 102.78125 6.492188 C 102.667969 6.335938 102.605469 6.15625 102.605469 5.96875 C 102.601563 5.828125 102.632813 5.691406 102.699219 5.5625 C 102.765625 5.433594 102.863281 5.320313 102.984375 5.230469 C 103.339844 5.023438 103.761719 4.925781 104.1875 4.957031 L 105.183594 4.957031 L 105.183594 4.902344 C 105.191406 4.800781 105.175781 4.699219 105.132813 4.605469 C 105.09375 4.507813 105.027344 4.421875 104.945313 4.351563 C 104.742188 4.214844 104.488281 4.148438 104.234375 4.164063 C 104.019531 4.164063 103.808594 4.191406 103.605469 4.253906 C 103.414063 4.304688 103.234375 4.386719 103.078125 4.503906 L 102.730469 3.921875 C 102.945313 3.777344 103.191406 3.671875 103.449219 3.609375 Z M 104.820313 6.277344 C 104.988281 6.1875 105.121094 6.046875 105.183594 5.882813 L 105.203125 5.488281 L 104.28125 5.488281 C 103.769531 5.488281 103.511719 5.636719 103.511719 5.9375 C 103.511719 6.007813 103.527344 6.074219 103.558594 6.136719 C 103.59375 6.195313 103.644531 6.25 103.703125 6.289063 C 103.863281 6.378906 104.050781 6.421875 104.238281 6.414063 C 104.441406 6.414063 104.640625 6.367188 104.820313 6.277344 Z M 100.082031 3.5 C 100.429688 3.492188 100.773438 3.570313 101.078125 3.71875 C 101.371094 3.859375 101.609375 4.070313 101.765625 4.332031 C 101.9375 4.609375 102.023438 4.925781 102.015625 5.242188 C 102.023438 5.5625 101.9375 5.878906 101.765625 6.164063 C 101.605469 6.421875 101.367188 6.632813 101.078125 6.777344 C 100.773438 6.925781 100.429688 7 100.082031 6.996094 C 99.851563 7.003906 99.625 6.96875 99.414063 6.886719 C 99.203125 6.808594 99.015625 6.6875 98.863281 6.539063 L 98.863281 8.21875 L 97.972656 8.21875 L 97.972656 3.535156 L 98.820313 3.535156 L 98.820313 3.984375 C 98.964844 3.820313 99.152344 3.695313 99.367188 3.617188 C 99.59375 3.539063 99.835938 3.496094 100.082031 3.5 Z M 100.421875 6.242188 C 100.5625 6.191406 100.691406 6.113281 100.796875 6.015625 C 100.902344 5.914063 100.984375 5.789063 101.039063 5.65625 C 101.09375 5.523438 101.117188 5.382813 101.109375 5.242188 C 101.117188 5.101563 101.09375 4.960938 101.039063 4.828125 C 100.984375 4.695313 100.902344 4.574219 100.796875 4.472656 C 100.691406 4.375 100.5625 4.296875 100.421875 4.246094 C 100.285156 4.195313 100.132813 4.171875 99.980469 4.175781 C 99.777344 4.171875 99.578125 4.21875 99.402344 4.304688 C 99.230469 4.394531 99.089844 4.523438 98.996094 4.679688 C 98.898438 4.855469 98.851563 5.046875 98.851563 5.242188 C 98.851563 5.4375 98.898438 5.628906 98.996094 5.804688 C 99.089844 5.960938 99.230469 6.089844 99.402344 6.179688 C 99.578125 6.265625 99.777344 6.3125 99.980469 6.308594 C 100.132813 6.3125 100.285156 6.289063 100.421875 6.242188 Z M 109.929688 3.535156 L 108.726563 6.0625 L 107.527344 3.535156 L 106.597656 3.535156 L 108.25 6.964844 L 108.1875 7.101563 C 108.125 7.238281 108.027344 7.363281 107.902344 7.464844 C 107.792969 7.539063 107.652344 7.578125 107.515625 7.574219 C 107.390625 7.570313 107.273438 7.546875 107.160156 7.503906 C 107.046875 7.464844 106.945313 7.40625 106.859375 7.332031 L 106.507813 7.921875 C 106.640625 8.027344 106.792969 8.105469 106.960938 8.152344 C 107.148438 8.207031 107.34375 8.234375 107.542969 8.234375 C 107.851563 8.242188 108.152344 8.164063 108.40625 8.011719 C 108.679688 7.804688 108.882813 7.53125 108.988281 7.222656 L 110.777344 3.535156 Z M 109.929688 3.535156 "/>
</clipPath>
<linearGradient id="linear0" gradientUnits="userSpaceOnUse" x1="-0.00296712" y1="0" x2="1" y2="0" gradientTransform="matrix(-109.687508,-0.000034,-0.000034,109.687508,113.343781,-108.887695)">
<stop offset="0" style="stop-color:rgb(19.215393%,61.175537%,95.292664%);stop-opacity:1;"/>
<stop offset="0.015625" style="stop-color:rgb(19.33136%,61.01532%,95.222473%);stop-opacity:1;"/>
<stop offset="0.0234375" style="stop-color:rgb(19.520569%,60.757446%,95.111084%);stop-opacity:1;"/>
<stop offset="0.03125" style="stop-color:rgb(19.665527%,60.560608%,95.024109%);stop-opacity:1;"/>
<stop offset="0.0390625" style="stop-color:rgb(19.80896%,60.365295%,94.93866%);stop-opacity:1;"/>
<stop offset="0.046875" style="stop-color:rgb(19.953918%,60.168457%,94.851685%);stop-opacity:1;"/>
<stop offset="0.0546875" style="stop-color:rgb(20.098877%,59.971619%,94.766235%);stop-opacity:1;"/>
<stop offset="0.0625" style="stop-color:rgb(20.24231%,59.77478%,94.680786%);stop-opacity:1;"/>
<stop offset="0.0703125" style="stop-color:rgb(20.387268%,59.577942%,94.593811%);stop-opacity:1;"/>
<stop offset="0.078125" style="stop-color:rgb(20.532227%,59.381104%,94.508362%);stop-opacity:1;"/>
<stop offset="0.0859375" style="stop-color:rgb(20.675659%,59.184265%,94.422913%);stop-opacity:1;"/>
<stop offset="0.09375" style="stop-color:rgb(20.820618%,58.987427%,94.335938%);stop-opacity:1;"/>
<stop offset="0.101563" style="stop-color:rgb(20.965576%,58.790588%,94.250488%);stop-opacity:1;"/>
<stop offset="0.109375" style="stop-color:rgb(21.109009%,58.595276%,94.163513%);stop-opacity:1;"/>
<stop offset="0.117188" style="stop-color:rgb(21.253967%,58.398438%,94.078064%);stop-opacity:1;"/>
<stop offset="0.125" style="stop-color:rgb(21.398926%,58.201599%,93.992615%);stop-opacity:1;"/>
<stop offset="0.132813" style="stop-color:rgb(21.542358%,58.004761%,93.90564%);stop-opacity:1;"/>
<stop offset="0.140625" style="stop-color:rgb(21.687317%,57.807922%,93.82019%);stop-opacity:1;"/>
<stop offset="0.148438" style="stop-color:rgb(21.832275%,57.611084%,93.733215%);stop-opacity:1;"/>
<stop offset="0.15625" style="stop-color:rgb(21.975708%,57.414246%,93.647766%);stop-opacity:1;"/>
<stop offset="0.164063" style="stop-color:rgb(22.120667%,57.217407%,93.562317%);stop-opacity:1;"/>
<stop offset="0.171875" style="stop-color:rgb(22.264099%,57.022095%,93.475342%);stop-opacity:1;"/>
<stop offset="0.179688" style="stop-color:rgb(22.409058%,56.825256%,93.389893%);stop-opacity:1;"/>
<stop offset="0.1875" style="stop-color:rgb(22.554016%,56.628418%,93.304443%);stop-opacity:1;"/>
<stop offset="0.195313" style="stop-color:rgb(22.697449%,56.43158%,93.217468%);stop-opacity:1;"/>
<stop offset="0.203125" style="stop-color:rgb(22.842407%,56.234741%,93.132019%);stop-opacity:1;"/>
<stop offset="0.210938" style="stop-color:rgb(22.987366%,56.037903%,93.045044%);stop-opacity:1;"/>
<stop offset="0.21875" style="stop-color:rgb(23.130798%,55.841064%,92.959595%);stop-opacity:1;"/>
<stop offset="0.226563" style="stop-color:rgb(23.275757%,55.644226%,92.874146%);stop-opacity:1;"/>
<stop offset="0.234375" style="stop-color:rgb(23.420715%,55.447388%,92.78717%);stop-opacity:1;"/>
<stop offset="0.242188" style="stop-color:rgb(23.564148%,55.252075%,92.701721%);stop-opacity:1;"/>
<stop offset="0.25" style="stop-color:rgb(23.709106%,55.055237%,92.614746%);stop-opacity:1;"/>
<stop offset="0.257813" style="stop-color:rgb(23.854065%,54.858398%,92.529297%);stop-opacity:1;"/>
<stop offset="0.265625" style="stop-color:rgb(23.997498%,54.66156%,92.443848%);stop-opacity:1;"/>
<stop offset="0.273437" style="stop-color:rgb(24.142456%,54.464722%,92.356873%);stop-opacity:1;"/>
<stop offset="0.28125" style="stop-color:rgb(24.287415%,54.267883%,92.271423%);stop-opacity:1;"/>
<stop offset="0.289063" style="stop-color:rgb(24.430847%,54.071045%,92.184448%);stop-opacity:1;"/>
<stop offset="0.296875" style="stop-color:rgb(24.575806%,53.874207%,92.098999%);stop-opacity:1;"/>
<stop offset="0.304687" style="stop-color:rgb(24.720764%,53.677368%,92.01355%);stop-opacity:1;"/>
<stop offset="0.3125" style="stop-color:rgb(24.864197%,53.482056%,91.926575%);stop-opacity:1;"/>
<stop offset="0.320313" style="stop-color:rgb(25.009155%,53.285217%,91.841125%);stop-opacity:1;"/>
<stop offset="0.328125" style="stop-color:rgb(25.152588%,53.088379%,91.755676%);stop-opacity:1;"/>
<stop offset="0.335938" style="stop-color:rgb(25.297546%,52.891541%,91.668701%);stop-opacity:1;"/>
<stop offset="0.34375" style="stop-color:rgb(25.442505%,52.694702%,91.583252%);stop-opacity:1;"/>
<stop offset="0.351563" style="stop-color:rgb(25.585938%,52.497864%,91.496277%);stop-opacity:1;"/>
<stop offset="0.359375" style="stop-color:rgb(25.730896%,52.301025%,91.410828%);stop-opacity:1;"/>
<stop offset="0.367188" style="stop-color:rgb(25.875854%,52.104187%,91.325378%);stop-opacity:1;"/>
<stop offset="0.375" style="stop-color:rgb(26.019287%,51.908875%,91.238403%);stop-opacity:1;"/>
<stop offset="0.382813" style="stop-color:rgb(26.164246%,51.712036%,91.152954%);stop-opacity:1;"/>
<stop offset="0.390625" style="stop-color:rgb(26.309204%,51.515198%,91.065979%);stop-opacity:1;"/>
<stop offset="0.398438" style="stop-color:rgb(26.452637%,51.318359%,90.98053%);stop-opacity:1;"/>
<stop offset="0.40625" style="stop-color:rgb(26.597595%,51.121521%,90.895081%);stop-opacity:1;"/>
<stop offset="0.414063" style="stop-color:rgb(26.742554%,50.924683%,90.808105%);stop-opacity:1;"/>
<stop offset="0.421875" style="stop-color:rgb(26.885986%,50.727844%,90.722656%);stop-opacity:1;"/>
<stop offset="0.429688" style="stop-color:rgb(27.030945%,50.531006%,90.637207%);stop-opacity:1;"/>
<stop offset="0.4375" style="stop-color:rgb(27.175903%,50.334167%,90.550232%);stop-opacity:1;"/>
<stop offset="0.445313" style="stop-color:rgb(27.319336%,50.138855%,90.464783%);stop-opacity:1;"/>
<stop offset="0.453125" style="stop-color:rgb(27.464294%,49.942017%,90.377808%);stop-opacity:1;"/>
<stop offset="0.460938" style="stop-color:rgb(27.607727%,49.745178%,90.292358%);stop-opacity:1;"/>
<stop offset="0.46875" style="stop-color:rgb(27.752686%,49.54834%,90.206909%);stop-opacity:1;"/>
<stop offset="0.476563" style="stop-color:rgb(27.897644%,49.351501%,90.119934%);stop-opacity:1;"/>
<stop offset="0.484375" style="stop-color:rgb(28.041077%,49.154663%,90.034485%);stop-opacity:1;"/>
<stop offset="0.492188" style="stop-color:rgb(28.186035%,48.957825%,89.94751%);stop-opacity:1;"/>
<stop offset="0.5" style="stop-color:rgb(28.330994%,48.760986%,89.862061%);stop-opacity:1;"/>
<stop offset="0.507813" style="stop-color:rgb(28.474426%,48.565674%,89.776611%);stop-opacity:1;"/>
<stop offset="0.515625" style="stop-color:rgb(28.619385%,48.368835%,89.689636%);stop-opacity:1;"/>
<stop offset="0.523437" style="stop-color:rgb(28.764343%,48.171997%,89.604187%);stop-opacity:1;"/>
<stop offset="0.53125" style="stop-color:rgb(28.907776%,47.975159%,89.518738%);stop-opacity:1;"/>
<stop offset="0.539063" style="stop-color:rgb(29.052734%,47.77832%,89.431763%);stop-opacity:1;"/>
<stop offset="0.546875" style="stop-color:rgb(29.197693%,47.581482%,89.346313%);stop-opacity:1;"/>
<stop offset="0.554687" style="stop-color:rgb(29.341125%,47.384644%,89.259338%);stop-opacity:1;"/>
<stop offset="0.5625" style="stop-color:rgb(29.486084%,47.187805%,89.173889%);stop-opacity:1;"/>
<stop offset="0.570313" style="stop-color:rgb(29.631042%,46.990967%,89.08844%);stop-opacity:1;"/>
<stop offset="0.578125" style="stop-color:rgb(29.774475%,46.795654%,89.001465%);stop-opacity:1;"/>
<stop offset="0.585938" style="stop-color:rgb(29.919434%,46.598816%,88.916016%);stop-opacity:1;"/>
<stop offset="0.59375" style="stop-color:rgb(30.064392%,46.401978%,88.829041%);stop-opacity:1;"/>
<stop offset="0.601563" style="stop-color:rgb(30.207825%,46.205139%,88.743591%);stop-opacity:1;"/>
<stop offset="0.609375" style="stop-color:rgb(30.352783%,46.008301%,88.658142%);stop-opacity:1;"/>
<stop offset="0.617188" style="stop-color:rgb(30.496216%,45.811462%,88.571167%);stop-opacity:1;"/>
<stop offset="0.625" style="stop-color:rgb(30.641174%,45.614624%,88.485718%);stop-opacity:1;"/>
<stop offset="0.632813" style="stop-color:rgb(30.786133%,45.417786%,88.398743%);stop-opacity:1;"/>
<stop offset="0.640625" style="stop-color:rgb(30.929565%,45.222473%,88.313293%);stop-opacity:1;"/>
<stop offset="0.648438" style="stop-color:rgb(31.074524%,45.025635%,88.227844%);stop-opacity:1;"/>
<stop offset="0.65625" style="stop-color:rgb(31.219482%,44.828796%,88.140869%);stop-opacity:1;"/>
<stop offset="0.664063" style="stop-color:rgb(31.362915%,44.631958%,88.05542%);stop-opacity:1;"/>
<stop offset="0.671875" style="stop-color:rgb(31.507874%,44.43512%,87.969971%);stop-opacity:1;"/>
<stop offset="0.679688" style="stop-color:rgb(31.652832%,44.238281%,87.882996%);stop-opacity:1;"/>
<stop offset="0.6875" style="stop-color:rgb(31.796265%,44.041443%,87.797546%);stop-opacity:1;"/>
<stop offset="0.695313" style="stop-color:rgb(31.941223%,43.844604%,87.710571%);stop-opacity:1;"/>
<stop offset="0.703125" style="stop-color:rgb(32.086182%,43.647766%,87.625122%);stop-opacity:1;"/>
<stop offset="0.710938" style="stop-color:rgb(32.229614%,43.452454%,87.539673%);stop-opacity:1;"/>
<stop offset="0.71875" style="stop-color:rgb(32.374573%,43.255615%,87.452698%);stop-opacity:1;"/>
<stop offset="0.726563" style="stop-color:rgb(32.519531%,43.058777%,87.367249%);stop-opacity:1;"/>
<stop offset="0.734375" style="stop-color:rgb(32.662964%,42.861938%,87.280273%);stop-opacity:1;"/>
<stop offset="0.742188" style="stop-color:rgb(32.807922%,42.6651%,87.194824%);stop-opacity:1;"/>
<stop offset="0.75" style="stop-color:rgb(32.951355%,42.468262%,87.109375%);stop-opacity:1;"/>
<stop offset="0.757813" style="stop-color:rgb(33.096313%,42.271423%,87.0224%);stop-opacity:1;"/>
<stop offset="0.765625" style="stop-color:rgb(33.241272%,42.074585%,86.936951%);stop-opacity:1;"/>
<stop offset="0.773438" style="stop-color:rgb(33.384705%,41.879272%,86.851501%);stop-opacity:1;"/>
<stop offset="0.78125" style="stop-color:rgb(33.529663%,41.682434%,86.764526%);stop-opacity:1;"/>
<stop offset="0.789063" style="stop-color:rgb(33.674622%,41.485596%,86.679077%);stop-opacity:1;"/>
<stop offset="0.796875" style="stop-color:rgb(33.818054%,41.288757%,86.592102%);stop-opacity:1;"/>
<stop offset="0.804688" style="stop-color:rgb(33.963013%,41.091919%,86.506653%);stop-opacity:1;"/>
<stop offset="0.8125" style="stop-color:rgb(34.107971%,40.895081%,86.421204%);stop-opacity:1;"/>
<stop offset="0.820313" style="stop-color:rgb(34.251404%,40.698242%,86.334229%);stop-opacity:1;"/>
<stop offset="0.828125" style="stop-color:rgb(34.396362%,40.501404%,86.248779%);stop-opacity:1;"/>
<stop offset="0.835938" style="stop-color:rgb(34.541321%,40.304565%,86.161804%);stop-opacity:1;"/>
<stop offset="0.84375" style="stop-color:rgb(34.684753%,40.109253%,86.076355%);stop-opacity:1;"/>
<stop offset="0.851563" style="stop-color:rgb(34.829712%,39.912415%,85.990906%);stop-opacity:1;"/>
<stop offset="0.859375" style="stop-color:rgb(34.97467%,39.715576%,85.903931%);stop-opacity:1;"/>
<stop offset="0.867188" style="stop-color:rgb(35.118103%,39.518738%,85.818481%);stop-opacity:1;"/>
<stop offset="0.875" style="stop-color:rgb(35.263062%,39.321899%,85.733032%);stop-opacity:1;"/>
<stop offset="0.882813" style="stop-color:rgb(35.40802%,39.125061%,85.646057%);stop-opacity:1;"/>
<stop offset="0.890625" style="stop-color:rgb(35.551453%,38.928223%,85.560608%);stop-opacity:1;"/>
<stop offset="0.898438" style="stop-color:rgb(35.696411%,38.731384%,85.473633%);stop-opacity:1;"/>
<stop offset="0.90625" style="stop-color:rgb(35.839844%,38.536072%,85.388184%);stop-opacity:1;"/>
<stop offset="0.914063" style="stop-color:rgb(35.984802%,38.339233%,85.302734%);stop-opacity:1;"/>
<stop offset="0.921875" style="stop-color:rgb(36.129761%,38.142395%,85.215759%);stop-opacity:1;"/>
<stop offset="0.929688" style="stop-color:rgb(36.273193%,37.945557%,85.13031%);stop-opacity:1;"/>
<stop offset="0.9375" style="stop-color:rgb(36.418152%,37.748718%,85.043335%);stop-opacity:1;"/>
<stop offset="0.945313" style="stop-color:rgb(36.56311%,37.55188%,84.957886%);stop-opacity:1;"/>
<stop offset="0.953125" style="stop-color:rgb(36.706543%,37.355042%,84.872437%);stop-opacity:1;"/>
<stop offset="0.960938" style="stop-color:rgb(36.851501%,37.158203%,84.785461%);stop-opacity:1;"/>
<stop offset="0.96875" style="stop-color:rgb(36.99646%,36.961365%,84.700012%);stop-opacity:1;"/>
<stop offset="0.976563" style="stop-color:rgb(37.139893%,36.766052%,84.613037%);stop-opacity:1;"/>
<stop offset="0.984375" style="stop-color:rgb(37.284851%,36.569214%,84.527588%);stop-opacity:1;"/>
<stop offset="0.992188" style="stop-color:rgb(37.42981%,36.372375%,84.442139%);stop-opacity:1;"/>
<stop offset="1" style="stop-color:rgb(37.573242%,36.175537%,84.355164%);stop-opacity:1;"/>
</linearGradient>
</defs>
<g id="surface1">
<g clip-path="url(#clip1)" clip-rule="nonzero">
<g clip-path="url(#clip2)" clip-rule="evenodd">
<path style=" stroke:none;fill-rule:nonzero;fill:url(#linear0);" d="M 113.667969 0.800781 L 113.667969 21.816406 L 3.65625 21.816406 L 3.65625 0.800781 Z M 113.667969 0.800781 "/>
</g>
</g>
</g>
</svg>
