<svg width="16" height="16" viewBox="0 0 16 16" fill="none" xmlns="http://www.w3.org/2000/svg">
<path fill-rule="evenodd" clip-rule="evenodd" d="M8.46266 4.27443C8.25811 3.88254 7.74209 3.88254 7.53753 4.27443L3.94766 11.147C3.74454 11.5355 4.00081 12.0195 4.41031 12.0195H11.5899C11.9987 12.0195 12.2556 11.5358 12.0525 11.147L8.46266 4.27443ZM9.43953 3.66429C8.80323 2.44524 7.19697 2.44524 6.56067 3.66429L2.97108 10.5363C2.97104 10.5364 2.97111 10.5363 2.97108 10.5363C2.33916 11.7454 3.13725 13.25 4.41031 13.25H11.5899C12.8628 13.25 13.6605 11.7454 13.0293 10.5366L9.43953 3.66429ZM8.0001 6.04124C8.31073 6.04124 8.56254 6.3167 8.56254 6.6565V8.57405C8.56254 8.91384 8.31073 9.1893 8.0001 9.1893C7.68947 9.1893 7.43766 8.91384 7.43766 8.57405V6.6565C7.43766 6.3167 7.68947 6.04124 8.0001 6.04124ZM7.32048 10.2452C7.31885 9.83131 7.62578 9.4995 7.99963 9.4995C8.37394 9.4995 8.67972 9.83078 8.67972 10.2429C8.67972 10.6535 8.37541 10.9864 8.0001 10.9864C7.62547 10.9864 7.32158 10.6547 7.32048 10.2452ZM7.55484 10.2455L7.3205 10.2474C7.32049 10.2466 7.32049 10.2459 7.32048 10.2452C7.32048 10.2444 7.32048 10.2437 7.32048 10.2429H7.55483C7.55483 10.2438 7.55483 10.2447 7.55484 10.2455Z" fill="#F15515"/>
</svg>
