<svg width="32" height="32" viewBox="0 0 32 32" fill="none" xmlns="http://www.w3.org/2000/svg">
<path d="M2.26892 11.506L2.88453 13.0016H1.65683L2.26892 11.506Z" fill="#006FCF"/>
<path d="M16.4463 12.4061C16.3227 12.4809 16.1765 12.4834 16.0014 12.4834H14.9087V11.6501H16.0162C16.173 11.6501 16.3365 11.6571 16.4428 11.7178C16.5594 11.7725 16.6316 11.8888 16.6316 12.0495C16.6316 12.2134 16.5629 12.3454 16.4463 12.4061Z" fill="#006FCF"/>
<path d="M23.6186 11.506L24.241 13.0016H22.9996L23.6186 11.506Z" fill="#006FCF"/>
<path fill-rule="evenodd" clip-rule="evenodd" d="M0 15.3573H1.53686L1.88337 14.524H2.65912L3.00472 15.3573H6.02839V14.7202L6.29828 15.36H7.86795L8.13784 14.7107V15.3573H15.6522L15.6487 13.9895H15.7941C15.8959 13.993 15.9257 14.0024 15.9257 14.17V15.3573H19.8121V15.0389C20.1256 15.2064 20.6132 15.3573 21.2548 15.3573H22.8898L23.2397 14.524H24.0155L24.3577 15.3573H27.5085V14.5658L27.9856 15.3573H30.5105V10.125H28.0117V10.7429L27.6618 10.125H25.0978V10.7429L24.7765 10.125H21.3131C20.7334 10.125 20.2238 10.2057 19.8121 10.4305V10.125H17.4221V10.4305C17.1602 10.1988 16.8032 10.125 16.4063 10.125H7.67466L7.08879 11.4764L6.48714 10.125H3.73689V10.7429L3.43476 10.125H1.08923L0 12.6127V15.3573ZM13.3861 14.6204H10.3815V10.8689H13.3861V11.6501H11.2809V12.3263H13.3356V13.0953H11.2809V13.8445H13.3861V14.6204ZM8.78908 14.6204H9.71102V10.8689H8.21354L7.13226 13.4139L5.95518 10.8689H4.48721V14.4208L2.9575 10.8689H1.62119L0.0105515 14.6204H0.987419L1.33654 13.7837H3.20923L3.55483 14.6204H5.38418V11.6796L6.69177 14.6204H7.48148L8.78568 11.6822L8.78908 14.6204ZM17.6224 11.8792C17.6224 12.4774 17.222 12.7864 16.9887 12.8792C17.1855 12.9539 17.3536 13.0858 17.4336 13.1951C17.5606 13.3817 17.5825 13.5484 17.5825 13.8835V14.6204H16.6753L16.6719 14.1473C16.6719 14.1244 16.6721 14.1005 16.6723 14.0759C16.6744 13.8573 16.677 13.5786 16.5299 13.4165C16.3985 13.2845 16.1982 13.2559 15.8744 13.2559H14.9088V14.6204H14.0095V10.8689H16.0782C16.5379 10.8689 16.8765 10.881 17.1673 11.0486C17.4518 11.2162 17.6224 11.4608 17.6224 11.8792ZM19.0618 14.6204H18.1441V10.8689H19.0618V14.6204ZM29.7087 14.6204H28.4342L26.7293 11.8047V14.6204H24.8976L24.5476 13.7837H22.6792L22.3396 14.6204H21.2871C20.85 14.6204 20.2964 14.524 19.9829 14.2055C19.6669 13.887 19.5024 13.4555 19.5024 12.7733C19.5024 12.2169 19.6007 11.7083 19.9873 11.3063C20.278 11.0069 20.7334 10.8689 21.3532 10.8689H22.2239V11.6727H21.3715C21.0432 11.6727 20.8579 11.7214 20.6794 11.895C20.526 12.0529 20.4208 12.3516 20.4208 12.7448C20.4208 13.1467 20.5009 13.4365 20.6681 13.6258C20.8066 13.7743 21.0582 13.8193 21.295 13.8193H21.6989L22.9666 10.869H24.3142L25.837 14.4174V10.869H27.2065L28.7875 13.4818V10.869H29.7087V14.6204Z" fill="#006FCF"/>
<path d="M19.8522 18.9449C20.0272 18.9449 20.176 18.9388 20.2963 18.8676C20.4129 18.7974 20.4826 18.668 20.4826 18.5075C20.4826 18.3469 20.4129 18.2307 20.2963 18.1699C20.1875 18.1055 20.0272 18.1021 19.8671 18.1021H18.7596V18.9449H19.8522Z" fill="#006FCF"/>
<path d="M12.4683 19.2087L13.8492 20.7372V17.7287L12.4683 19.2087Z" fill="#006FCF"/>
<path d="M8.07166 20.2965H10.283L11.3104 19.1956L10.3266 18.102H8.07166V18.7842H10.0463V19.5499H8.07166V20.2965Z" fill="#006FCF"/>
<path d="M14.7451 19.0577H15.9074C16.253 19.0577 16.4679 18.8868 16.4679 18.5622C16.4679 18.2341 16.2425 18.1021 15.9178 18.1021H14.7451V19.0577Z" fill="#006FCF"/>
<path fill-rule="evenodd" clip-rule="evenodd" d="M32 20.5985C31.7815 20.917 31.3558 21.0785 30.7794 21.0785H29.0425V20.2738H30.7724C30.944 20.2738 31.0641 20.2513 31.1364 20.1809C31.199 20.1229 31.2427 20.0386 31.2427 19.9362C31.2427 19.8268 31.199 19.7401 31.1329 19.688C31.0676 19.6307 30.9726 19.6047 30.816 19.6047C30.7607 19.6028 30.7046 19.6013 30.6479 19.5998C29.8381 19.5779 28.9179 19.5531 28.9179 18.4433C28.9179 17.899 29.2645 17.3261 30.2083 17.3261H31.9999V16.5795H30.3353C29.833 16.5795 29.4681 16.6995 29.2097 16.8859V16.5795H26.7476C26.3539 16.5795 25.8917 16.6768 25.6731 16.8859V16.5795H21.2765V16.8859C20.9266 16.6343 20.3361 16.5795 20.0636 16.5795H17.1636V16.8859C16.8867 16.6187 16.2711 16.5795 15.8959 16.5795H12.6502L11.9075 17.3809L11.2119 16.5795H6.36354V21.8154H11.1206L11.886 21.0014L12.6069 21.8154L15.5392 21.818V20.5863H15.8275C16.2165 20.5923 16.6754 20.5767 17.0803 20.4022V21.8153H19.4989V20.4507H19.6156C19.7645 20.4507 19.7791 20.4568 19.7791 20.6051V21.8152H27.1264C27.5929 21.8152 28.0805 21.6962 28.3505 21.4802V21.8152H30.681C31.166 21.8152 31.6396 21.7474 32 21.5739V20.5985ZM28.4122 19.0994C28.5874 19.2801 28.6812 19.5082 28.6812 19.8944C28.6812 20.7016 28.1754 21.0784 27.2683 21.0784H25.5165V20.2738H27.2613C27.4319 20.2738 27.5528 20.2513 27.6287 20.1809C27.6905 20.1228 27.7349 20.0385 27.7349 19.9361C27.7349 19.8268 27.6869 19.74 27.6251 19.688C27.5564 19.6307 27.4615 19.6047 27.3049 19.6047C27.2498 19.6028 27.1938 19.6013 27.1372 19.5998C26.3303 19.5779 25.4104 19.553 25.4104 18.4433C25.4104 17.899 25.7534 17.3261 26.6963 17.3261H28.4994V18.1247H26.8495C26.686 18.1247 26.5796 18.1309 26.4892 18.1925C26.3906 18.2533 26.3541 18.3435 26.3541 18.4625C26.3541 18.6041 26.4377 18.7004 26.5509 18.742C26.6458 18.7749 26.7477 18.7846 26.9009 18.7846L27.3851 18.7976C27.8734 18.8095 28.2085 18.8936 28.4122 19.0994ZM20.8395 19.3346C21.0397 19.4083 21.2034 19.5403 21.2801 19.6496C21.4071 19.8328 21.4255 20.0038 21.4291 20.3346V21.0785H20.5261V20.609C20.5261 20.5864 20.5264 20.5628 20.5266 20.5384C20.5286 20.3181 20.5312 20.0315 20.3807 19.8745C20.2493 19.74 20.049 19.7079 19.7209 19.7079H18.7597V21.0785H17.8559V17.326H19.9324C20.3878 17.326 20.7194 17.346 21.0146 17.5031C21.2985 17.6741 21.477 17.9083 21.477 18.3364C21.4769 18.9353 21.0763 19.2409 20.8395 19.3346ZM21.9757 17.326H24.9776V18.102H22.8714V18.7842H24.9262V19.5498H22.8714V20.2964L24.9776 20.2998V21.0784H21.9757V17.326ZM17.4336 18.5622C17.4336 19.6046 16.6535 19.8198 15.8673 19.8198H14.7451V21.0784H12.9969L11.8894 19.8362L10.7384 21.0784H7.17572V17.326H10.7932L11.8998 18.556L13.0438 17.326H15.9178C16.6316 17.326 17.4336 17.523 17.4336 18.5622Z" fill="#006FCF"/>
<path d="M30.3608 18.1245H32V19.1922C31.9985 19.1904 31.9971 19.1885 31.9956 19.1866L31.9909 19.1805L31.9885 19.1774L31.9884 19.1772C31.9677 19.1502 31.9473 19.1235 31.9166 19.0993C31.7164 18.8937 31.388 18.8094 30.8961 18.7973L30.4086 18.7843C30.2588 18.7843 30.1569 18.7747 30.062 18.7418C29.9455 18.7001 29.8653 18.6038 29.8653 18.4623C29.8653 18.3432 29.9019 18.2531 29.9968 18.1923C30.0884 18.1306 30.1971 18.1245 30.3608 18.1245Z" fill="#006FCF"/>
</svg>
