<svg width="24" height="24" viewBox="0 0 24 24" fill="none" xmlns="http://www.w3.org/2000/svg">
<rect width="24" height="24" rx="12" fill="#F3F4FB"/>
<path fill-rule="evenodd" clip-rule="evenodd" d="M7.23123 7.23123C7.53954 6.92292 8.03941 6.92292 8.34772 7.23123L12 10.8835L15.6523 7.23123C15.9606 6.92292 16.4605 6.92292 16.7688 7.23123C17.0771 7.53954 17.0771 8.03941 16.7688 8.34772L13.1165 12L16.7688 15.6523C17.0771 15.9606 17.0771 16.4605 16.7688 16.7688C16.4605 17.0771 15.9606 17.0771 15.6523 16.7688L12 13.1165L8.34772 16.7688C8.03941 17.0771 7.53954 17.0771 7.23123 16.7688C6.92292 16.4605 6.92292 15.9606 7.23123 15.6523L10.8835 12L7.23123 8.34772C6.92292 8.03941 6.92292 7.53954 7.23123 7.23123Z" fill="#787E9E"/>
</svg>
