<svg width="62" height="24" viewBox="0 0 62 24" fill="none" xmlns="http://www.w3.org/2000/svg">
<path d="M28.9512 11.6721V18.7481H26.6904V1.27441H32.6839C34.2029 1.27441 35.4982 1.77734 36.5579 2.78319C37.6412 3.78903 38.1829 5.0171 38.1829 6.46739C38.1829 7.95277 37.6412 9.18084 36.5579 10.175C35.51 11.1691 34.2147 11.6604 32.6839 11.6604H28.9512V11.6721ZM28.9512 3.42646V9.52002H32.731C33.6259 9.52002 34.3795 9.21593 34.9683 8.61944C35.5688 8.02295 35.875 7.2978 35.875 6.47909C35.875 5.67207 35.5688 4.95862 34.9683 4.36213C34.3795 3.74225 33.6377 3.43815 32.731 3.43815H28.9512V3.42646Z" fill="white"/>
<path d="M44.0945 6.39746C45.7665 6.39746 47.0853 6.8419 48.0509 7.73079C49.0165 8.61968 49.4992 9.83606 49.4992 11.3799V18.7483H47.3444V17.0875H47.2502C46.32 18.4559 45.0718 19.1343 43.5175 19.1343C42.1869 19.1343 41.08 18.7483 40.1851 17.9647C39.2902 17.1811 38.8428 16.2103 38.8428 15.0407C38.8428 13.801 39.3138 12.8185 40.2558 12.0934C41.1978 11.3565 42.4577 10.9939 44.0238 10.9939C45.3662 10.9939 46.473 11.2396 47.3326 11.7308V11.2162C47.3326 10.4325 47.0265 9.77757 46.4024 9.22787C45.7783 8.67816 45.0483 8.40915 44.2122 8.40915C42.9523 8.40915 41.9514 8.93547 41.2213 9.9998L39.2313 8.76003C40.3264 7.18108 41.9514 6.39746 44.0945 6.39746ZM41.1742 15.0758C41.1742 15.6606 41.4215 16.1518 41.9278 16.5378C42.4224 16.9238 43.0112 17.1226 43.6823 17.1226C44.6361 17.1226 45.4839 16.7717 46.2258 16.07C46.9676 15.3682 47.3444 14.5495 47.3444 13.6021C46.6379 13.0524 45.6606 12.7717 44.4006 12.7717C43.4822 12.7717 42.7168 12.9939 42.1045 13.4267C41.4804 13.8828 41.1742 14.4325 41.1742 15.0758Z" fill="white"/>
<path d="M61.7919 6.7832L54.2559 23.9996H51.9244L54.7269 17.9762L49.7578 6.7832H52.2188L55.7984 15.368H55.8455L59.3309 6.7832H61.7919Z" fill="white"/>
<path d="M19.9579 10.2451C19.9579 9.51294 19.892 8.81236 19.7695 8.13867H10.293V11.9983L15.7507 11.9995C15.5293 13.2837 14.817 14.3784 13.7254 15.1083V17.6123H16.9741C18.8711 15.8685 19.9579 13.2907 19.9579 10.2451Z" fill="#4285F4"/>
<path d="M13.7265 15.109C12.8222 15.7149 11.6576 16.0693 10.2953 16.0693C7.66354 16.0693 5.43099 14.3079 4.63146 11.9336H1.28027V14.5161C2.94056 17.7886 6.35297 20.0342 10.2953 20.0342C13.02 20.0342 15.3091 19.1441 16.9753 17.612L13.7265 15.109Z" fill="#34A853"/>
<path d="M4.31633 10.018C4.31633 9.3513 4.42819 8.70686 4.6319 8.10101V5.51855H1.28072C0.594228 6.87177 0.208008 8.39925 0.208008 10.018C0.208008 11.6367 0.595406 13.1642 1.28072 14.5174L4.6319 11.9349C4.42819 11.3291 4.31633 10.6846 4.31633 10.018Z" fill="#FABB05"/>
<path d="M10.2953 3.96491C11.7825 3.96491 13.1142 4.47368 14.1657 5.46783L17.0447 2.61052C15.2961 0.992982 13.0165 0 10.2953 0C6.35415 0 2.94056 2.24561 1.28027 5.51812L4.63146 8.10058C5.43099 5.72631 7.66354 3.96491 10.2953 3.96491Z" fill="#E94235"/>
</svg>
