<svg width="24" height="24" viewBox="0 0 24 24" fill="none" xmlns="http://www.w3.org/2000/svg">
<path fill-rule="evenodd" clip-rule="evenodd" d="M12 3.81818C7.48087 3.81818 3.81818 7.48087 3.81818 12C3.81818 16.5191 7.48087 20.1818 12 20.1818C16.5191 20.1818 20.1818 16.5191 20.1818 12C20.1818 7.48087 16.5191 3.81818 12 3.81818ZM2 12C2 6.47671 6.47671 2 12 2C17.5233 2 22 6.47671 22 12C22 17.5233 17.5233 22 12 22C6.47671 22 2 17.5233 2 12ZM10.5859 8.21542C10.583 7.56906 11.1074 7.05051 11.7465 7.05051C12.3866 7.05051 12.9091 7.56829 12.9091 8.21212C12.9091 8.85359 12.3889 9.37374 11.7475 9.37374C11.1071 9.37374 10.5876 8.85537 10.5859 8.21542ZM10.0808 12C10.0808 11.4979 10.4878 11.0909 10.9899 11.0909H12C12.5021 11.0909 12.9091 11.4979 12.9091 12V17.0505C12.9091 17.5526 12.5021 17.9596 12 17.9596C11.4979 17.9596 11.0909 17.5526 11.0909 17.0505V12.9091H10.9899C10.4878 12.9091 10.0808 12.5021 10.0808 12Z" fill="#10142D"/>
</svg>
