<svg width="8" height="8" viewBox="0 0 8 8" fill="none" xmlns="http://www.w3.org/2000/svg">
<path fill-rule="evenodd" clip-rule="evenodd" d="M4 0C4.40576 0 4.73469 0.328934 4.73469 0.734694V3.26531H7.26531C7.67107 3.26531 8 3.59424 8 4C8 4.40576 7.67107 4.73469 7.26531 4.73469H4.73469V7.26531C4.73469 7.67107 4.40576 8 4 8C3.59424 8 3.26531 7.67107 3.26531 7.26531V4.73469H0.734694C0.328934 4.73469 0 4.40576 0 4C0 3.59424 0.328934 3.26531 0.734694 3.26531H3.26531V0.734694C3.26531 0.328934 3.59424 0 4 0Z" fill="#319CF3"/>
</svg>
