<svg width="32" height="32" viewBox="0 0 32 32" fill="none" xmlns="http://www.w3.org/2000/svg">
<path d="M5.82123 28.3122V26.6643C5.8309 26.5256 5.8109 26.3866 5.76257 26.2563C5.71425 26.126 5.6387 26.0076 5.54097 25.9088C5.44325 25.81 5.32558 25.7332 5.19584 25.6835C5.06609 25.6338 4.92724 25.6124 4.78854 25.6206C4.60701 25.6087 4.42564 25.6458 4.26332 25.7279C4.10101 25.8101 3.96369 25.9342 3.86569 26.0875C3.77637 25.9388 3.64861 25.817 3.49587 25.7348C3.34313 25.6526 3.17105 25.6132 2.99777 25.6206C2.84672 25.613 2.6963 25.645 2.56141 25.7134C2.42653 25.7818 2.31184 25.8842 2.22872 26.0106V25.6865H1.65741V28.3122H2.23419V26.8565C2.22172 26.7667 2.2293 26.6752 2.25638 26.5887C2.28346 26.5021 2.32937 26.4226 2.39082 26.3559C2.45226 26.2892 2.52772 26.237 2.61176 26.2029C2.6958 26.1688 2.78636 26.1538 2.8769 26.1589C3.25593 26.1589 3.44821 26.4061 3.44821 26.851V28.3122H4.02499V26.8565C4.01346 26.7669 4.02169 26.6758 4.04912 26.5896C4.07655 26.5035 4.1225 26.4244 4.18375 26.3579C4.245 26.2914 4.32007 26.2392 4.40367 26.2048C4.48728 26.1704 4.57739 26.1547 4.66769 26.1589C5.05768 26.1589 5.24445 26.4061 5.24445 26.851V28.3122H5.82123ZM14.3576 25.6865H13.4238V24.89H12.847V25.6865H12.3141V26.2083H12.847V27.4059C12.847 28.0156 13.0832 28.3782 13.7589 28.3782C14.0113 28.3789 14.2588 28.3085 14.473 28.1749L14.3082 27.686C14.155 27.7774 13.9811 27.8284 13.8028 27.8343C13.5172 27.8343 13.4238 27.6585 13.4238 27.3949V26.2083H14.3576V25.6865ZM19.2301 25.6206C19.0908 25.6165 18.953 25.65 18.8311 25.7177C18.7093 25.7854 18.608 25.8847 18.5379 26.0051V25.6865H17.9721V28.3122H18.5434V26.84C18.5434 26.4061 18.7302 26.1644 19.1037 26.1644C19.2259 26.1627 19.3472 26.1851 19.4608 26.2303L19.6365 25.692C19.5061 25.6453 19.3686 25.6211 19.2301 25.6206V25.6206ZM11.8637 25.8952C11.5404 25.7029 11.1686 25.6076 10.7926 25.6206C10.1279 25.6206 9.69943 25.9392 9.69943 26.461C9.69943 26.8895 10.018 27.1532 10.6058 27.2356L10.8749 27.274C11.188 27.3179 11.3364 27.4003 11.3364 27.5486C11.3364 27.7519 11.1276 27.8673 10.7376 27.8673C10.4239 27.8763 10.1163 27.7796 9.8642 27.5926L9.59505 28.0375C9.92781 28.2699 10.3264 28.3893 10.7321 28.3782C11.4902 28.3782 11.9296 28.0211 11.9296 27.5212C11.9296 27.0598 11.5836 26.8181 11.0123 26.7356L10.7431 26.6972C10.4959 26.6643 10.2982 26.6149 10.2982 26.4391C10.2982 26.2468 10.4849 26.1314 10.798 26.1314C11.0856 26.1358 11.3673 26.2133 11.6165 26.3566L11.8637 25.8952ZM27.1677 25.6206C27.0284 25.6165 26.8906 25.65 26.7687 25.7177C26.6469 25.7854 26.5456 25.8847 26.4755 26.0051V25.6865H25.9097V28.3122H26.481V26.84C26.481 26.4061 26.6678 26.1644 27.0413 26.1644C27.1635 26.1627 27.2849 26.1851 27.3984 26.2303L27.5742 25.692C27.4437 25.6453 27.3062 25.6211 27.1677 25.6206V25.6206ZM19.8068 26.9993C19.7992 27.1843 19.8304 27.3688 19.8984 27.541C19.9665 27.7132 20.0697 27.8692 20.2017 27.9991C20.3336 28.129 20.4913 28.2298 20.6645 28.2951C20.8378 28.3604 21.0228 28.3887 21.2076 28.3782C21.5506 28.3954 21.8876 28.2837 22.1524 28.065L21.8778 27.6036C21.6803 27.7541 21.4394 27.837 21.1911 27.8398C20.977 27.8268 20.776 27.7326 20.629 27.5764C20.482 27.4202 20.4001 27.2138 20.4001 26.9993C20.4001 26.7849 20.482 26.5785 20.629 26.4223C20.776 26.2661 20.977 26.1719 21.1911 26.1589C21.4395 26.1617 21.6803 26.2446 21.8778 26.3951L22.1524 25.9337C21.8876 25.715 21.5506 25.6034 21.2076 25.6206C21.0228 25.6101 20.8378 25.6384 20.6646 25.7036C20.4913 25.7689 20.3337 25.8697 20.2017 25.9996C20.0698 26.1294 19.9665 26.2855 19.8985 26.4576C19.8305 26.6298 19.7992 26.8143 19.8068 26.9993V26.9993ZM25.1572 26.9993V25.6865H24.5859V26.0051C24.4884 25.8794 24.3622 25.7789 24.2179 25.7121C24.0736 25.6452 23.9153 25.6138 23.7564 25.6206C23.4024 25.6379 23.0687 25.7908 22.8243 26.0474C22.5799 26.3041 22.4436 26.645 22.4436 26.9994C22.4436 27.3538 22.5799 27.6946 22.8243 27.9513C23.0687 28.208 23.4024 28.3608 23.7564 28.3782C23.9153 28.3849 24.0736 28.3536 24.2179 28.2867C24.3622 28.2198 24.4884 28.1193 24.5859 27.9936V28.3122H25.1572V26.9993ZM23.0313 26.9993C23.0402 26.8444 23.0942 26.6954 23.1867 26.5708C23.2792 26.4462 23.4062 26.3514 23.5519 26.2981C23.6977 26.2447 23.8558 26.2352 24.0069 26.2707C24.158 26.3062 24.2954 26.3852 24.4021 26.4978C24.5089 26.6104 24.5804 26.7519 24.6077 26.9046C24.635 27.0574 24.6171 27.2148 24.556 27.3575C24.495 27.5002 24.3935 27.6219 24.2641 27.7076C24.1347 27.7933 23.983 27.8392 23.8279 27.8398C23.7191 27.8413 23.6112 27.8202 23.5109 27.7779C23.4107 27.7356 23.3203 27.673 23.2455 27.594C23.1706 27.515 23.113 27.4214 23.0761 27.3191C23.0393 27.2167 23.024 27.1078 23.0313 26.9993V26.9993ZM16.1374 25.6206C15.7812 25.6393 15.446 25.7953 15.2023 26.0558C14.9585 26.3164 14.8252 26.6611 14.8301 27.0179C14.8351 27.3746 14.978 27.7155 15.229 27.9691C15.4799 28.2228 15.8192 28.3693 16.1759 28.3782C16.5678 28.3919 16.9511 28.2609 17.2525 28.0101L16.9724 27.5871C16.7554 27.761 16.4868 27.8576 16.2088 27.8618C16.02 27.8776 15.8325 27.8194 15.6859 27.6995C15.5393 27.5795 15.4451 27.4072 15.4233 27.219H17.3734C17.3789 27.1477 17.3844 27.0762 17.3844 26.9993C17.3789 26.1809 16.8735 25.6206 16.1374 25.6206V25.6206ZM16.1264 26.1314C16.299 26.1281 16.4658 26.1933 16.5904 26.3127C16.715 26.4321 16.7872 26.5961 16.7911 26.7686H15.4288C15.4388 26.5924 15.5174 26.427 15.6478 26.3079C15.7782 26.1888 15.9499 26.1255 16.1264 26.1314V26.1314ZM30.4581 26.9993V24.6318H29.8868V26.0051C29.7893 25.8794 29.6631 25.7789 29.5188 25.7121C29.3745 25.6452 29.2162 25.6138 29.0573 25.6206C28.7033 25.6379 28.3696 25.7908 28.1251 26.0474C27.8807 26.3041 27.7444 26.6449 27.7444 26.9994C27.7444 27.3538 27.8807 27.6946 28.1251 27.9513C28.3696 28.208 28.7033 28.3608 29.0573 28.3782C29.2162 28.3849 29.3745 28.3536 29.5188 28.2867C29.6631 28.2198 29.7893 28.1193 29.8868 27.9936V28.3122H30.4581V26.9993ZM31.4104 27.9317C31.4459 27.9315 31.481 27.9384 31.5137 27.9522C31.5452 27.9653 31.5738 27.9843 31.5982 28.0081C31.6223 28.0319 31.6416 28.0602 31.6551 28.0913C31.6688 28.1233 31.6759 28.1577 31.6759 28.1925C31.6759 28.2273 31.6688 28.2618 31.6551 28.2938C31.6416 28.3248 31.6222 28.3529 31.5982 28.3766C31.5738 28.4004 31.5451 28.4195 31.5137 28.4329C31.4811 28.4468 31.4459 28.4539 31.4104 28.4537C31.3581 28.4542 31.3069 28.4393 31.263 28.4109C31.2192 28.3824 31.1847 28.3417 31.1638 28.2938C31.1501 28.2618 31.1431 28.2273 31.1431 28.1925C31.1431 28.1577 31.1501 28.1233 31.1638 28.0913C31.1772 28.0602 31.1964 28.032 31.2205 28.0081C31.2448 27.9841 31.2736 27.9651 31.3052 27.9522C31.3385 27.9384 31.3743 27.9314 31.4104 27.9317V27.9317ZM31.4104 28.3961C31.4375 28.3963 31.4643 28.3909 31.4891 28.3801C31.513 28.3698 31.5347 28.355 31.553 28.3366C31.591 28.2983 31.6123 28.2466 31.6123 28.1927C31.6123 28.1388 31.591 28.087 31.553 28.0487C31.5347 28.0304 31.513 28.0157 31.4891 28.0056C31.4642 27.995 31.4374 27.9897 31.4104 27.9899C31.3829 27.9897 31.3556 27.995 31.3301 28.0056C31.3059 28.0156 31.2838 28.0302 31.2652 28.0487C31.2273 28.087 31.206 28.1387 31.206 28.1927C31.206 28.2466 31.2273 28.2983 31.2652 28.3366C31.2839 28.3551 31.3059 28.3699 31.3301 28.3801C31.3555 28.3908 31.3828 28.3963 31.4104 28.3961V28.3961ZM31.4257 28.0705C31.4514 28.0688 31.4769 28.0762 31.4977 28.0913C31.506 28.0981 31.5126 28.1068 31.517 28.1166C31.5214 28.1265 31.5234 28.1372 31.523 28.1479C31.5233 28.1571 31.5216 28.1663 31.5182 28.1748C31.5147 28.1833 31.5095 28.191 31.5029 28.1974C31.4869 28.2116 31.4668 28.22 31.4456 28.2214L31.5249 28.3129H31.4629L31.3893 28.2221H31.3656V28.3129H31.3138V28.0705H31.4257ZM31.3656 28.1159V28.1805H31.4251C31.4366 28.1811 31.4479 28.1783 31.4578 28.1725C31.4618 28.1698 31.465 28.1662 31.4671 28.1618C31.4693 28.1575 31.4702 28.1527 31.4699 28.1479C31.4702 28.1432 31.4692 28.1385 31.467 28.1343C31.4649 28.1301 31.4617 28.1265 31.4578 28.1239C31.4479 28.1181 31.4366 28.1154 31.4251 28.1159H31.3656ZM28.3322 26.9993C28.3411 26.8444 28.3951 26.6954 28.4876 26.5708C28.5802 26.4462 28.7071 26.3514 28.8529 26.2981C28.9986 26.2448 29.1568 26.2353 29.3078 26.2708C29.4589 26.3063 29.5963 26.3852 29.703 26.4979C29.8098 26.6105 29.8812 26.752 29.9086 26.9047C29.9359 27.0575 29.9179 27.2149 29.8569 27.3576C29.7958 27.5003 29.6943 27.6219 29.5649 27.7076C29.4355 27.7933 29.2839 27.8392 29.1287 27.8398C29.0199 27.8413 28.912 27.8202 28.8118 27.7779C28.7116 27.7356 28.6212 27.673 28.5464 27.594C28.4716 27.515 28.4139 27.4214 28.377 27.3191C28.3402 27.2167 28.3249 27.1078 28.3322 26.9993V26.9993ZM9.04024 26.9993V25.6865H8.46893V26.0051C8.37141 25.8794 8.24523 25.7789 8.10092 25.7121C7.95661 25.6452 7.79838 25.6138 7.63946 25.6206C7.28547 25.6379 6.95172 25.7908 6.70732 26.0474C6.46293 26.3041 6.32662 26.645 6.32662 26.9994C6.32662 27.3538 6.46293 27.6946 6.70732 27.9513C6.95172 28.208 7.28547 28.3608 7.63946 28.3782C7.79838 28.3849 7.95661 28.3536 8.10092 28.2867C8.24523 28.2198 8.37142 28.1193 8.46893 27.9936V28.3122H9.04024V26.9993ZM6.9144 26.9993C6.92328 26.8444 6.9773 26.6954 7.06982 26.5708C7.16233 26.4462 7.28929 26.3514 7.43503 26.2981C7.58078 26.2448 7.73894 26.2353 7.89001 26.2708C8.04109 26.3063 8.17847 26.3852 8.28521 26.4979C8.39196 26.6105 8.46341 26.752 8.49074 26.9047C8.51808 27.0575 8.5001 27.2149 8.43904 27.3576C8.37797 27.5003 8.27649 27.6219 8.1471 27.7076C8.01771 27.7933 7.86607 27.8392 7.71088 27.8398C7.60211 27.8413 7.4942 27.8202 7.39398 27.7779C7.29376 27.7356 7.20338 27.673 7.12856 27.594C7.05373 27.515 6.99607 27.4214 6.95921 27.3191C6.92235 27.2167 6.90709 27.1078 6.9144 26.9993V26.9993Z" fill="#231F20"/>
<path d="M20.3267 5.67578H11.6738V21.2253H20.3267V5.67578Z" fill="#FF5F00"/>
<path d="M12.2232 13.4515C12.2218 11.954 12.5611 10.4758 13.2155 9.12881C13.8699 7.78182 14.8222 6.60135 16.0002 5.67678C14.5414 4.5301 12.7893 3.817 10.9444 3.61898C9.09943 3.42096 7.23598 3.74601 5.56703 4.55698C3.89808 5.36795 2.49096 6.63212 1.50651 8.205C0.522061 9.77788 0 11.596 0 13.4515C0 15.3071 0.522061 17.1252 1.50651 18.6981C2.49096 20.271 3.89808 21.5351 5.56703 22.3461C7.23598 23.1571 9.09943 23.4821 10.9444 23.2841C12.7893 23.0861 14.5414 22.373 16.0002 21.2263C14.8222 20.3017 13.8699 19.1213 13.2155 17.7743C12.5612 16.4273 12.2218 14.9491 12.2232 13.4515V13.4515Z" fill="#EB001B"/>
<path d="M32 13.4515C32.0001 15.3071 31.4781 17.1252 30.4937 18.6981C29.5093 20.2709 28.1022 21.5351 26.4333 22.3461C24.7644 23.1571 22.901 23.4821 21.056 23.2841C19.2111 23.0861 17.4591 22.373 16.0003 21.2263C17.1773 20.3008 18.1288 19.1202 18.7831 17.7734C19.4374 16.4266 19.7773 14.9488 19.7773 13.4515C19.7773 11.9542 19.4374 10.4765 18.7831 9.12972C18.1288 7.78294 17.1773 6.60228 16.0003 5.67678C17.4591 4.5301 19.2111 3.81699 21.056 3.61898C22.901 3.42096 24.7644 3.74602 26.4333 4.557C28.1022 5.36798 29.5093 6.63215 30.4937 8.20503C31.4781 9.77791 32.0001 11.596 32 13.4515V13.4515Z" fill="#F79E1B"/>
<path d="M31.0566 19.5791V19.2608H31.1849V19.1959H30.858V19.2608H30.9865V19.5791H31.0566ZM31.6913 19.5791V19.1953H31.5911L31.4758 19.4593L31.3605 19.1953H31.2602V19.5791H31.331V19.2896L31.4391 19.5392H31.5125L31.6206 19.289V19.5791H31.6913Z" fill="#F79E1B"/>
</svg>
